<?xml version="1.0" encoding="UTF-8"?><svg id="Layer_1" xmlns="http://www.w3.org/2000/svg" width="720" height="361" viewBox="0 0 720 361"><rect x="19.5" y="21.21" width="131" height="54.89" fill="#6faddf"/><text transform="translate(30.45 54.38)" font-family="ArialMT, Arial" font-size="16"><tspan x="0" y="0">Analog I/O</tspan><tspan x="75.6" y="0" letter-spacing="-.02em"> </tspan><tspan x="79.76" y="0" letter-spacing="-.11em">T</tspan><tspan x="87.76" y="0">est</tspan></text><line x1="199.5" y1="48.65" x2="159.26" y2="48.65" fill="none" stroke="#333f48" stroke-miterlimit="10" stroke-width="1.15"/><polygon points="160.94 42.91 150.99 48.65 160.94 54.4 160.94 42.91" fill="#333f48"/><rect x="19.5" y="101.21" width="131" height="54.89" fill="#6faddf"/><text transform="translate(33.13 134.38)" font-family="ArialMT, Arial" font-size="16"><tspan x="0" y="0">Digital I/O</tspan><tspan x="70.24" y="0" letter-spacing="-.02em"> </tspan><tspan x="74.4" y="0" letter-spacing="-.11em">T</tspan><tspan x="82.4" y="0">est</tspan></text><line x1="199.5" y1="128.65" x2="159.26" y2="128.65" fill="none" stroke="#333f48" stroke-miterlimit="10" stroke-width="1.15"/><polygon points="160.94 122.91 150.99 128.65 160.94 134.4 160.94 122.91" fill="#333f48"/><rect x="19.5" y="181.21" width="131" height="54.89" fill="#6faddf"/><text transform="translate(42.91 214.38)" font-family="ArialMT, Arial" font-size="16"><tspan x="0" y="0">TSI I/O</tspan><tspan x="50.67" y="0" letter-spacing="-.02em"> </tspan><tspan x="54.83" y="0" letter-spacing="-.11em">T</tspan><tspan x="62.83" y="0">est</tspan></text><line x1="199.5" y1="208.65" x2="159.26" y2="208.65" fill="none" stroke="#333f48" stroke-miterlimit="10" stroke-width="1.15"/><polygon points="160.94 202.91 150.99 208.65 160.94 214.4 160.94 202.91" fill="#333f48"/><rect x="569.5" y="21.21" width="131" height="54.89" fill="#6faddf"/><path d="m601.8,45.38v-11.45h1.52v11.45h-1.52Z"/><path d="m605.81,45.38v-8.3h1.27v1.18c.61-.91,1.49-1.37,2.64-1.37.5,0,.96.09,1.38.27.42.18.73.42.94.71.21.29.35.64.44,1.04.05.26.08.72.08,1.37v5.1h-1.41v-5.05c0-.57-.05-1-.16-1.29-.11-.28-.3-.51-.58-.68-.28-.17-.61-.25-.98-.25-.6,0-1.12.19-1.55.57-.43.38-.65,1.1-.65,2.16v4.53h-1.41Z"/><path d="m617.02,45.38l-3.16-8.3h1.48l1.78,4.97c.19.54.37,1.09.53,1.67.12-.44.3-.96.52-1.58l1.84-5.06h1.45l-3.14,8.3h-1.31Z"/><path d="m628.12,44.36c-.52.44-1.02.76-1.5.94-.48.18-1,.27-1.55.27-.91,0-1.61-.22-2.1-.67-.49-.45-.73-1.01-.73-1.71,0-.41.09-.78.28-1.11.19-.34.43-.61.73-.81.3-.2.64-.36,1.01-.46.28-.07.69-.14,1.25-.21,1.14-.14,1.97-.3,2.51-.48,0-.19,0-.31,0-.37,0-.57-.13-.98-.4-1.21-.36-.32-.89-.48-1.6-.48-.66,0-1.15.12-1.46.35-.31.23-.55.64-.7,1.23l-1.38-.19c.12-.59.33-1.06.62-1.43.29-.36.7-.64,1.24-.84.54-.2,1.17-.29,1.88-.29s1.28.08,1.73.25c.44.17.77.38.98.63.21.25.35.57.44.96.05.24.07.67.07,1.3v1.88c0,1.31.03,2.13.09,2.48.06.35.18.68.36,1h-1.47c-.15-.29-.24-.63-.28-1.02Zm-.12-3.14c-.51.21-1.28.39-2.3.53-.58.08-.99.18-1.23.28-.24.1-.42.26-.55.46-.13.2-.2.42-.2.67,0,.38.14.69.43.94.28.25.7.38,1.25.38s1.02-.12,1.45-.36c.42-.24.73-.56.93-.97.15-.32.23-.79.23-1.41v-.52Z"/><path d="m631.59,45.38v-8.3h1.27v1.26c.32-.59.62-.98.89-1.16s.57-.28.9-.28c.47,0,.96.15,1.45.45l-.48,1.3c-.34-.2-.69-.3-1.03-.3-.31,0-.58.09-.83.28-.24.19-.42.44-.52.77-.16.5-.23,1.05-.23,1.64v4.34h-1.41Z"/><path d="m636.95,35.55v-1.62h1.41v1.62h-1.41Zm0,9.84v-8.3h1.41v8.3h-1.41Z"/><path d="m645.91,44.36c-.52.44-1.02.76-1.5.94-.48.18-1,.27-1.55.27-.91,0-1.61-.22-2.1-.67-.49-.45-.73-1.01-.73-1.71,0-.41.09-.78.28-1.11.19-.34.43-.61.73-.81.3-.2.64-.36,1.01-.46.28-.07.69-.14,1.25-.21,1.14-.14,1.97-.3,2.51-.48,0-.19,0-.31,0-.37,0-.57-.13-.98-.4-1.21-.36-.32-.89-.48-1.6-.48-.66,0-1.15.12-1.46.35-.31.23-.55.64-.7,1.23l-1.38-.19c.12-.59.33-1.06.62-1.43.29-.36.7-.64,1.24-.84.54-.2,1.17-.29,1.88-.29s1.28.08,1.73.25c.44.17.77.38.98.63.21.25.35.57.44.96.05.24.07.67.07,1.3v1.88c0,1.31.03,2.13.09,2.48.06.35.18.68.36,1h-1.47c-.15-.29-.24-.63-.28-1.02Zm-.12-3.14c-.51.21-1.28.39-2.3.53-.58.08-.99.18-1.23.28-.24.1-.42.26-.55.46-.13.2-.2.42-.2.67,0,.38.14.69.43.94.28.25.7.38,1.25.38s1.02-.12,1.45-.36c.42-.24.73-.56.93-.97.15-.32.23-.79.23-1.41v-.52Z"/><path d="m650.69,45.38h-1.3v-11.45h1.41v4.09c.59-.74,1.35-1.12,2.27-1.12.51,0,.99.1,1.45.31.46.21.83.5,1.12.87.29.37.53.82.69,1.35.17.53.25,1.09.25,1.69,0,1.42-.35,2.52-1.05,3.3-.7.78-1.55,1.16-2.53,1.16s-1.75-.41-2.3-1.23v1.04Zm-.02-4.21c0,1,.14,1.71.41,2.16.44.72,1.04,1.09,1.8,1.09.62,0,1.15-.27,1.59-.8.45-.53.67-1.33.67-2.39s-.21-1.88-.64-2.4-.95-.77-1.56-.77-1.15.27-1.59.8c-.45.53-.67,1.31-.67,2.32Z"/><path d="m658.26,45.38v-11.45h1.41v11.45h-1.41Z"/><path d="m667.52,42.71l1.45.18c-.23.85-.65,1.51-1.27,1.98-.62.47-1.41.7-2.38.7-1.21,0-2.18-.37-2.89-1.12-.71-.75-1.07-1.8-1.07-3.14s.36-2.48,1.08-3.25c.72-.77,1.65-1.16,2.8-1.16s2.02.38,2.72,1.13c.7.76,1.05,1.82,1.05,3.19,0,.08,0,.21,0,.38h-6.19c.05.91.31,1.61.77,2.09.46.48,1.04.73,1.73.73.52,0,.96-.14,1.32-.41.37-.27.65-.7.87-1.3Zm-4.62-2.27h4.63c-.06-.7-.24-1.22-.53-1.57-.45-.54-1.03-.81-1.74-.81-.65,0-1.19.22-1.63.65-.44.43-.68,1.01-.73,1.73Z"/><path d="m607.3,63.38v-11.45h2.28l2.71,8.11c.25.76.43,1.32.55,1.7.13-.42.33-1.03.61-1.84l2.74-7.97h2.04v11.45h-1.46v-9.59l-3.33,9.59h-1.37l-3.31-9.75v9.75h-1.46Z"/><path d="m626.17,60.71l1.45.18c-.23.85-.65,1.51-1.27,1.98-.62.47-1.41.7-2.38.7-1.21,0-2.18-.37-2.89-1.12-.71-.75-1.07-1.8-1.07-3.14s.36-2.48,1.08-3.25c.72-.77,1.65-1.16,2.8-1.16s2.02.38,2.72,1.13c.7.76,1.05,1.82,1.05,3.19,0,.08,0,.21,0,.38h-6.19c.05.91.31,1.61.77,2.09.46.48,1.04.73,1.73.73.52,0,.96-.14,1.32-.41.37-.27.65-.7.87-1.3Zm-4.62-2.27h4.63c-.06-.7-.24-1.22-.53-1.57-.45-.54-1.03-.81-1.74-.81-.65,0-1.19.22-1.63.65-.44.43-.68,1.01-.73,1.73Z"/><path d="m629.39,63.38v-8.3h1.26v1.16c.26-.41.61-.73,1.04-.98.43-.25.92-.37,1.48-.37.62,0,1.12.13,1.51.38.39.26.67.61.83,1.07.66-.97,1.51-1.45,2.56-1.45.82,0,1.46.23,1.9.68.44.46.66,1.16.66,2.11v5.7h-1.4v-5.23c0-.56-.04-.97-.14-1.21-.09-.25-.26-.45-.5-.6-.24-.15-.52-.23-.84-.23-.58,0-1.07.19-1.45.58-.38.39-.58,1.01-.58,1.86v4.82h-1.41v-5.39c0-.62-.11-1.09-.34-1.41-.23-.31-.6-.47-1.12-.47-.4,0-.76.1-1.1.31-.34.21-.58.51-.73.91-.15.4-.23.98-.23,1.73v4.3h-1.41Z"/><path d="m642.2,59.23c0-1.54.43-2.67,1.28-3.41.71-.61,1.58-.92,2.61-.92,1.14,0,2.07.37,2.8,1.12.72.75,1.09,1.78,1.09,3.1,0,1.07-.16,1.91-.48,2.52-.32.61-.79,1.09-1.4,1.43-.61.34-1.28.51-2,.51-1.16,0-2.1-.37-2.82-1.12-.72-.74-1.07-1.82-1.07-3.22Zm1.45,0c0,1.06.23,1.86.7,2.39.46.53,1.05.79,1.75.79s1.28-.27,1.74-.8c.46-.53.7-1.34.7-2.43,0-1.03-.23-1.8-.7-2.33-.47-.53-1.04-.79-1.74-.79s-1.29.26-1.75.79c-.46.53-.7,1.32-.7,2.38Z"/><path d="m651.6,63.38v-8.3h1.27v1.26c.32-.59.62-.98.89-1.16s.57-.28.9-.28c.47,0,.96.15,1.45.45l-.48,1.3c-.34-.2-.69-.3-1.03-.3-.31,0-.58.09-.83.28-.24.19-.42.44-.52.77-.16.5-.23,1.05-.23,1.64v4.34h-1.41Z"/><path d="m656.88,66.58l-.16-1.32c.31.08.58.12.8.12.31,0,.56-.05.75-.16.19-.1.34-.25.46-.44.09-.14.23-.49.43-1.05.03-.08.07-.19.12-.34l-3.15-8.31h1.52l1.73,4.8c.22.61.42,1.25.6,1.92.16-.65.35-1.28.58-1.89l1.77-4.84h1.41l-3.16,8.44c-.34.91-.6,1.54-.79,1.88-.25.46-.54.8-.86,1.02-.32.22-.71.32-1.16.32-.27,0-.57-.06-.91-.17Z"/><line x1="521.5" y1="48.65" x2="561.74" y2="48.65" fill="none" stroke="#333f48" stroke-miterlimit="10" stroke-width="1.15"/><polygon points="560.06 54.4 570.01 48.65 560.06 42.91 560.06 54.4" fill="#333f48"/><rect x="569.5" y="101.21" width="131" height="54.89" fill="#6faddf"/><path d="m610.75,125.38l-4.44-11.45h1.64l2.98,8.32c.24.67.44,1.29.6,1.88.18-.62.38-1.25.62-1.88l3.09-8.32h1.55l-4.48,11.45h-1.55Z"/><path d="m622.2,124.36c-.52.44-1.02.76-1.5.94-.48.18-1,.27-1.55.27-.91,0-1.61-.22-2.1-.67-.49-.45-.73-1.01-.73-1.71,0-.41.09-.78.28-1.11.19-.34.43-.61.73-.81.3-.2.64-.36,1.01-.46.28-.07.69-.14,1.25-.21,1.14-.14,1.97-.3,2.51-.48,0-.19,0-.31,0-.37,0-.57-.13-.98-.4-1.21-.36-.32-.89-.48-1.6-.48-.66,0-1.15.12-1.46.35-.31.23-.55.64-.7,1.23l-1.38-.19c.12-.59.33-1.06.62-1.43.29-.36.7-.64,1.24-.84.54-.2,1.17-.29,1.88-.29s1.28.08,1.73.25c.44.17.77.38.98.63.21.25.35.57.44.96.05.24.07.67.07,1.3v1.88c0,1.31.03,2.13.09,2.48.06.35.18.68.36,1h-1.47c-.15-.29-.24-.63-.28-1.02Zm-.12-3.14c-.51.21-1.28.39-2.3.53-.58.08-.99.18-1.23.28-.24.1-.42.26-.55.46-.13.2-.2.42-.2.67,0,.38.14.69.43.94.28.25.7.38,1.25.38s1.02-.12,1.45-.36c.42-.24.73-.56.93-.97.15-.32.23-.79.23-1.41v-.52Z"/><path d="m625.66,125.38v-8.3h1.27v1.26c.32-.59.62-.98.89-1.16s.57-.28.9-.28c.47,0,.96.15,1.45.45l-.48,1.3c-.34-.2-.69-.3-1.03-.3-.31,0-.58.09-.83.28-.24.19-.42.44-.52.77-.16.5-.23,1.05-.23,1.64v4.34h-1.41Z"/><path d="m631.02,115.55v-1.62h1.41v1.62h-1.41Zm0,9.84v-8.3h1.41v8.3h-1.41Z"/><path d="m639.98,124.36c-.52.44-1.02.76-1.5.94-.48.18-1,.27-1.55.27-.91,0-1.61-.22-2.1-.67-.49-.45-.73-1.01-.73-1.71,0-.41.09-.78.28-1.11.19-.34.43-.61.73-.81.3-.2.64-.36,1.01-.46.28-.07.69-.14,1.25-.21,1.14-.14,1.97-.3,2.51-.48,0-.19,0-.31,0-.37,0-.57-.13-.98-.4-1.21-.36-.32-.89-.48-1.6-.48-.66,0-1.15.12-1.46.35-.31.23-.55.64-.7,1.23l-1.38-.19c.12-.59.33-1.06.62-1.43.29-.36.7-.64,1.24-.84.54-.2,1.17-.29,1.88-.29s1.28.08,1.73.25c.44.17.77.38.98.63.21.25.35.57.44.96.05.24.07.67.07,1.3v1.88c0,1.31.03,2.13.09,2.48.06.35.18.68.36,1h-1.47c-.15-.29-.24-.63-.28-1.02Zm-.12-3.14c-.51.21-1.28.39-2.3.53-.58.08-.99.18-1.23.28-.24.1-.42.26-.55.46-.13.2-.2.42-.2.67,0,.38.14.69.43.94.28.25.7.38,1.25.38s1.02-.12,1.45-.36c.42-.24.73-.56.93-.97.15-.32.23-.79.23-1.41v-.52Z"/><path d="m644.76,125.38h-1.3v-11.45h1.41v4.09c.59-.74,1.35-1.12,2.27-1.12.51,0,.99.1,1.45.31.46.21.83.5,1.12.87.29.37.53.82.69,1.35.17.53.25,1.09.25,1.69,0,1.42-.35,2.52-1.05,3.3-.7.78-1.55,1.16-2.53,1.16s-1.75-.41-2.3-1.23v1.04Zm-.02-4.21c0,1,.14,1.71.41,2.16.44.72,1.04,1.09,1.8,1.09.62,0,1.15-.27,1.59-.8.45-.53.67-1.33.67-2.39s-.21-1.88-.64-2.4-.95-.77-1.56-.77-1.15.27-1.59.8c-.45.53-.67,1.31-.67,2.32Z"/><path d="m652.33,125.38v-11.45h1.41v11.45h-1.41Z"/><path d="m661.59,122.71l1.45.18c-.23.85-.65,1.51-1.27,1.98-.62.47-1.41.7-2.38.7-1.21,0-2.18-.37-2.89-1.12-.71-.75-1.07-1.8-1.07-3.14s.36-2.48,1.08-3.25c.72-.77,1.65-1.16,2.8-1.16s2.02.38,2.72,1.13c.7.76,1.05,1.82,1.05,3.19,0,.08,0,.21,0,.38h-6.19c.05.91.31,1.61.77,2.09.46.48,1.04.73,1.73.73.52,0,.96-.14,1.32-.41.37-.27.65-.7.87-1.3Zm-4.62-2.27h4.63c-.06-.7-.24-1.22-.53-1.57-.45-.54-1.03-.81-1.74-.81-.65,0-1.19.22-1.63.65-.44.43-.68,1.01-.73,1.73Z"/><path d="m607.3,143.38v-11.45h2.28l2.71,8.11c.25.76.43,1.32.55,1.7.13-.42.33-1.03.61-1.84l2.74-7.97h2.04v11.45h-1.46v-9.59l-3.33,9.59h-1.37l-3.31-9.75v9.75h-1.46Z"/><path d="m626.17,140.71l1.45.18c-.23.85-.65,1.51-1.27,1.98-.62.47-1.41.7-2.38.7-1.21,0-2.18-.37-2.89-1.12-.71-.75-1.07-1.8-1.07-3.14s.36-2.48,1.08-3.25c.72-.77,1.65-1.16,2.8-1.16s2.02.38,2.72,1.13c.7.76,1.05,1.82,1.05,3.19,0,.08,0,.21,0,.38h-6.19c.05.91.31,1.61.77,2.09.46.48,1.04.73,1.73.73.52,0,.96-.14,1.32-.41.37-.27.65-.7.87-1.3Zm-4.62-2.27h4.63c-.06-.7-.24-1.22-.53-1.57-.45-.54-1.03-.81-1.74-.81-.65,0-1.19.22-1.63.65-.44.43-.68,1.01-.73,1.73Z"/><path d="m629.39,143.38v-8.3h1.26v1.16c.26-.41.61-.73,1.04-.98.43-.25.92-.37,1.48-.37.62,0,1.12.13,1.51.38.39.26.67.61.83,1.07.66-.97,1.51-1.45,2.56-1.45.82,0,1.46.23,1.9.68.44.46.66,1.16.66,2.11v5.7h-1.4v-5.23c0-.56-.04-.97-.14-1.21-.09-.25-.26-.45-.5-.6-.24-.15-.52-.23-.84-.23-.58,0-1.07.19-1.45.58-.38.39-.58,1.01-.58,1.86v4.82h-1.41v-5.39c0-.62-.11-1.09-.34-1.41-.23-.31-.6-.47-1.12-.47-.4,0-.76.1-1.1.31-.34.21-.58.51-.73.91-.15.4-.23.98-.23,1.73v4.3h-1.41Z"/><path d="m642.2,139.23c0-1.54.43-2.67,1.28-3.41.71-.61,1.58-.92,2.61-.92,1.14,0,2.07.37,2.8,1.12.72.75,1.09,1.78,1.09,3.1,0,1.07-.16,1.91-.48,2.52-.32.61-.79,1.09-1.4,1.43-.61.34-1.28.51-2,.51-1.16,0-2.1-.37-2.82-1.12-.72-.74-1.07-1.82-1.07-3.22Zm1.45,0c0,1.06.23,1.86.7,2.39.46.53,1.05.79,1.75.79s1.28-.27,1.74-.8c.46-.53.7-1.34.7-2.43,0-1.03-.23-1.8-.7-2.33-.47-.53-1.04-.79-1.74-.79s-1.29.26-1.75.79c-.46.53-.7,1.32-.7,2.38Z"/><path d="m651.6,143.38v-8.3h1.27v1.26c.32-.59.62-.98.89-1.16s.57-.28.9-.28c.47,0,.96.15,1.45.45l-.48,1.3c-.34-.2-.69-.3-1.03-.3-.31,0-.58.09-.83.28-.24.19-.42.44-.52.77-.16.5-.23,1.05-.23,1.64v4.34h-1.41Z"/><path d="m656.88,146.58l-.16-1.32c.31.08.58.12.8.12.31,0,.56-.05.75-.16.19-.1.34-.25.46-.44.09-.14.23-.49.43-1.05.03-.08.07-.19.12-.34l-3.15-8.31h1.52l1.73,4.8c.22.61.42,1.25.6,1.92.16-.65.35-1.28.58-1.89l1.77-4.84h1.41l-3.16,8.44c-.34.91-.6,1.54-.79,1.88-.25.46-.54.8-.86,1.02-.32.22-.71.32-1.16.32-.27,0-.57-.06-.91-.17Z"/><line x1="521.5" y1="128.65" x2="561.74" y2="128.65" fill="none" stroke="#333f48" stroke-miterlimit="10" stroke-width="1.15"/><polygon points="560.06 134.4 570.01 128.65 560.06 122.91 560.06 134.4" fill="#333f48"/><rect x="569.5" y="181.21" width="131" height="54.89" fill="#6faddf"/><path d="m605.29,201.37l1.52.38c-.32,1.25-.89,2.19-1.71,2.85-.83.65-1.83.98-3.03.98s-2.24-.25-3.01-.75c-.77-.5-1.36-1.23-1.77-2.18-.4-.95-.61-1.98-.61-3.07,0-1.19.23-2.23.68-3.12.46-.89,1.1-1.56,1.95-2.02.84-.46,1.77-.69,2.78-.69,1.15,0,2.11.29,2.89.88.78.58,1.33,1.4,1.63,2.46l-1.49.35c-.27-.83-.65-1.44-1.16-1.82-.5-.38-1.14-.57-1.91-.57-.88,0-1.62.21-2.21.63-.59.42-1.01.99-1.25,1.7-.24.71-.36,1.44-.36,2.2,0,.97.14,1.82.43,2.55.28.73.73,1.27,1.32,1.63.6.36,1.25.54,1.95.54.85,0,1.57-.24,2.16-.73.59-.49.99-1.22,1.2-2.18Z"/><path d="m608.67,205.38v-11.45h4.32c.76,0,1.34.04,1.74.11.56.09,1.03.27,1.41.54.38.26.69.63.92,1.11.23.47.35,1,.35,1.56,0,.97-.31,1.8-.93,2.47-.62.67-1.74,1.01-3.36,1.01h-2.94v4.66h-1.52Zm1.52-6.01h2.96c.98,0,1.67-.18,2.09-.55.41-.36.62-.88.62-1.54,0-.48-.12-.89-.36-1.23-.24-.34-.56-.57-.96-.68-.25-.07-.73-.1-1.41-.1h-2.93v4.09Z"/><path d="m626.86,193.93h1.52v6.62c0,1.15-.13,2.07-.39,2.74-.26.68-.73,1.23-1.41,1.65-.68.42-1.57.64-2.68.64s-1.95-.18-2.63-.55c-.68-.37-1.17-.9-1.46-1.61-.29-.7-.44-1.66-.44-2.87v-6.62h1.52v6.61c0,1,.09,1.73.28,2.2.19.47.5.83.95,1.09.45.26,1,.38,1.65.38,1.12,0,1.91-.25,2.38-.76.47-.5.71-1.48.71-2.91v-6.61Z"/><path d="m634.82,201.7l1.43-.12c.07.57.23,1.04.47,1.41.25.37.63.66,1.15.89.52.23,1.11.34,1.76.34.58,0,1.09-.09,1.53-.26.44-.17.77-.41.99-.71.22-.3.32-.63.32-.98s-.1-.67-.31-.94c-.21-.27-.55-.49-1.03-.68-.31-.12-.99-.31-2.04-.56-1.05-.25-1.79-.49-2.21-.71-.55-.29-.95-.64-1.22-1.07-.27-.42-.4-.9-.4-1.43,0-.58.16-1.12.49-1.62.33-.5.81-.88,1.44-1.14.63-.26,1.33-.39,2.1-.39.85,0,1.6.14,2.25.41s1.15.68,1.5,1.21c.35.53.54,1.13.56,1.8l-1.45.11c-.08-.72-.34-1.27-.79-1.64-.45-.37-1.12-.55-2-.55s-1.58.17-2,.5c-.42.34-.63.74-.63,1.21,0,.41.15.75.45,1.02.29.27,1.05.54,2.29.82,1.23.28,2.08.52,2.54.73.67.31,1.16.7,1.48,1.17.32.47.48,1.01.48,1.63s-.17,1.18-.52,1.72c-.35.54-.85.96-1.5,1.26-.65.3-1.39.45-2.21.45-1.04,0-1.9-.15-2.61-.45-.7-.3-1.25-.76-1.65-1.36-.4-.61-.61-1.29-.63-2.06Z"/><path d="m648.9,204.12l.2,1.24c-.4.08-.75.12-1.06.12-.51,0-.91-.08-1.19-.24s-.48-.37-.59-.64c-.11-.26-.17-.82-.17-1.66v-4.77h-1.03v-1.09h1.03v-2.05l1.4-.84v2.9h1.41v1.09h-1.41v4.85c0,.4.03.66.07.77.05.12.13.21.24.27.11.07.27.1.48.1.16,0,.36-.02.62-.05Z"/><path d="m655.69,204.36c-.52.44-1.02.76-1.5.94-.48.18-1,.27-1.55.27-.91,0-1.61-.22-2.1-.67-.49-.45-.73-1.01-.73-1.71,0-.41.09-.78.28-1.11.19-.34.43-.61.73-.81.3-.2.64-.36,1.01-.46.28-.07.69-.14,1.25-.21,1.14-.13,1.97-.3,2.51-.48,0-.19,0-.31,0-.37,0-.57-.13-.98-.4-1.21-.36-.32-.89-.48-1.6-.48-.66,0-1.15.12-1.46.35-.31.23-.55.64-.7,1.23l-1.38-.19c.12-.59.33-1.06.62-1.43.29-.36.7-.64,1.24-.84.54-.2,1.17-.29,1.88-.29s1.28.08,1.73.25c.44.17.77.38.98.63.21.25.35.57.44.96.05.24.07.67.07,1.3v1.88c0,1.31.03,2.13.09,2.48.06.35.18.68.36,1h-1.47c-.15-.29-.24-.63-.28-1.02Zm-.12-3.14c-.51.21-1.28.39-2.3.53-.58.08-.99.18-1.23.28-.24.1-.42.26-.55.46-.13.2-.2.42-.2.67,0,.38.14.69.43.94.28.25.7.38,1.25.38s1.02-.12,1.45-.36c.42-.24.73-.56.93-.97.15-.32.23-.79.23-1.41v-.52Z"/><path d="m664.59,202.34l1.38.18c-.15.95-.54,1.7-1.16,2.24-.62.54-1.39.81-2.29.81-1.13,0-2.05-.37-2.74-1.11-.69-.74-1.04-1.81-1.04-3.19,0-.9.15-1.68.45-2.35s.75-1.18,1.36-1.51c.61-.34,1.27-.5,1.98-.5.9,0,1.64.23,2.21.68.57.46.94,1.1,1.1,1.94l-1.37.21c-.13-.56-.36-.98-.69-1.26-.33-.28-.73-.42-1.2-.42-.71,0-1.28.25-1.73.76-.44.51-.66,1.31-.66,2.41s.21,1.92.64,2.43c.43.51.98.76,1.67.76.55,0,1.01-.17,1.38-.51.37-.34.6-.86.7-1.56Z"/><path d="m667.18,205.38v-11.45h1.41v6.53l3.33-3.38h1.82l-3.17,3.08,3.49,5.22h-1.73l-2.74-4.24-.99.95v3.29h-1.41Z"/><path d="m626.55,223.38v-10.1h-3.77v-1.35h9.08v1.35h-3.79v10.1h-1.52Z"/><path d="m637.14,220.71l1.45.18c-.23.85-.65,1.51-1.27,1.98-.62.47-1.41.7-2.38.7-1.21,0-2.18-.37-2.89-1.12-.71-.75-1.07-1.79-1.07-3.14s.36-2.48,1.08-3.25c.72-.77,1.65-1.16,2.8-1.16s2.02.38,2.72,1.13c.7.76,1.05,1.82,1.05,3.19,0,.08,0,.21,0,.38h-6.19c.05.91.31,1.61.77,2.09.46.48,1.04.73,1.73.73.52,0,.96-.13,1.32-.41.37-.27.65-.7.87-1.3Zm-4.62-2.27h4.63c-.06-.7-.24-1.22-.53-1.57-.45-.54-1.03-.81-1.74-.81-.65,0-1.19.22-1.63.65-.44.43-.68,1.01-.73,1.73Z"/><path d="m639.8,220.9l1.39-.22c.08.56.3.98.65,1.28.36.3.86.45,1.5.45s1.12-.13,1.44-.39c.31-.26.47-.57.47-.93,0-.32-.14-.57-.41-.75-.19-.12-.67-.28-1.44-.48-1.03-.26-1.75-.49-2.14-.68-.4-.19-.7-.45-.91-.79-.21-.34-.31-.71-.31-1.11,0-.37.08-.71.25-1.03.17-.31.4-.58.69-.79.22-.16.52-.3.89-.41.38-.11.78-.17,1.21-.17.65,0,1.22.09,1.71.28s.86.44,1.09.76.4.75.48,1.29l-1.38.19c-.06-.43-.24-.76-.54-1-.3-.24-.72-.36-1.27-.36-.65,0-1.11.11-1.38.32-.28.21-.41.46-.41.75,0,.18.06.35.17.49.12.15.29.28.54.38.14.05.55.17,1.24.36,1,.27,1.69.48,2.08.65.39.17.7.42.93.74.22.32.34.72.34,1.2s-.14.91-.41,1.32-.67.73-1.18.96-1.1.34-1.75.34c-1.08,0-1.9-.22-2.46-.67-.56-.45-.93-1.11-1.08-1.99Z"/><path d="m651.43,222.12l.2,1.24c-.4.08-.75.12-1.06.12-.51,0-.91-.08-1.19-.24s-.48-.37-.59-.64c-.11-.26-.17-.82-.17-1.66v-4.77h-1.03v-1.09h1.03v-2.05l1.4-.84v2.9h1.41v1.09h-1.41v4.85c0,.4.03.66.07.77.05.12.13.21.24.27.11.07.27.1.48.1.16,0,.36-.02.62-.05Z"/><line x1="521.5" y1="208.65" x2="561.74" y2="208.65" fill="none" stroke="#333f48" stroke-miterlimit="10" stroke-width="1.15"/><polygon points="560.06 214.4 570.01 208.65 560.06 202.91 560.06 214.4" fill="#333f48"/><rect x="390.88" y="285.21" width="131" height="54.89" fill="#6faddf"/><text transform="translate(413.86 318.38)" font-family="ArialMT, Arial" font-size="16"><tspan x="0" y="0">WDOG</tspan><tspan x="51.55" y="0" letter-spacing="-.02em"> </tspan><tspan x="55.7" y="0" letter-spacing="-.11em">T</tspan><tspan x="63.7" y="0">est</tspan></text><line x1="456.38" y1="236.4" x2="456.38" y2="276.64" fill="none" stroke="#333f48" stroke-miterlimit="10" stroke-width="1.15"/><polygon points="450.63 274.96 456.38 284.91 462.13 274.96 450.63 274.96" fill="#333f48"/><rect x="199.38" y="285.21" width="131" height="54.89" fill="#6faddf"/><text transform="translate(228.13 318.38)" font-family="ArialMT, Arial" font-size="16"><tspan x="0" y="0">Clock</tspan><tspan x="40.01" y="0" letter-spacing="-.02em"> </tspan><tspan x="44.16" y="0" letter-spacing="-.11em">T</tspan><tspan x="52.16" y="0">est</tspan></text><line x1="264.88" y1="236.4" x2="264.88" y2="276.64" fill="none" stroke="#333f48" stroke-miterlimit="10" stroke-width="1.15"/><polygon points="259.13 274.96 264.88 284.91 270.63 274.96 259.13 274.96" fill="#333f48"/><rect x="199.5" y="20.71" width="322" height="215.5" fill="#e5eaed"/><rect x="295" y="152.21" width="131" height="54.89" fill="#6faddf"/><text transform="translate(310.71 176.38)" font-family="ArialMT, Arial" font-size="16"><tspan x="0" y="0">CPU Program </tspan><tspan x="21.33" y="18">Counter</tspan></text><rect x="295" y="76.21" width="131" height="54.89" fill="#6faddf"/><text transform="translate(307.6 109.38)" font-family="ArialMT, Arial" font-size="16"><tspan x="0" y="0">CPU Registers</tspan></text><text transform="translate(304.79 54.47)" font-family="Arial-BoldMT, Arial" font-size="16" font-weight="700"><tspan x="0" y="0">CPU Core </tspan><tspan x="79.12" y="0" letter-spacing="-.07em">T</tspan><tspan x="87.71" y="0">est</tspan></text></svg>